<mxfile host="drawio-plugin" modified="2023-09-19T20:24:02.727Z" agent="5.0 (X11; Linux x86_64) AppleWebKit/537.36 (KHTML, like Gecko) Chrome/111.0.0.0 Safari/537.36" etag="4q1JrKocXNtjowv5dZOS" version="20.5.3" type="embed"><diagram id="23iRSUPoRavnBvh4doch" name="Page-1"><mxGraphModel dx="729" dy="879" grid="1" gridSize="10" guides="1" tooltips="1" connect="1" arrows="1" fold="1" page="1" pageScale="1" pageWidth="827" pageHeight="1169" math="0" shadow="0"><root><mxCell id="0"/><mxCell id="1" parent="0"/><mxCell id="50" value="" style="group" parent="1" vertex="1" connectable="0"><mxGeometry x="97.5" y="20" width="420" height="370" as="geometry"/></mxCell><mxCell id="45" value="" style="group" parent="50" vertex="1" connectable="0"><mxGeometry width="420" height="310" as="geometry"/></mxCell><mxCell id="39" value="" style="group" parent="45" vertex="1" connectable="0"><mxGeometry y="30" width="420" height="280" as="geometry"/></mxCell><mxCell id="2" value="" style="shape=folder;fontStyle=1;spacingTop=10;tabWidth=40;tabHeight=14;tabPosition=left;html=1;" parent="39" vertex="1"><mxGeometry width="420" height="280" as="geometry"/></mxCell><mxCell id="3" value="LoggingInterface" style="swimlane;fontStyle=3;align=center;verticalAlign=top;childLayout=stackLayout;horizontal=1;startSize=26;horizontalStack=0;resizeParent=1;resizeParentMax=0;resizeLast=0;collapsible=1;marginBottom=0;" parent="39" vertex="1"><mxGeometry x="15" y="40" width="380" height="60" as="geometry"/></mxCell><mxCell id="5" value="" style="line;strokeWidth=1;fillColor=none;align=left;verticalAlign=middle;spacingTop=-1;spacingLeft=3;spacingRight=3;rotatable=0;labelPosition=right;points=[];portConstraint=eastwest;strokeColor=inherit;" parent="3" vertex="1"><mxGeometry y="26" width="380" height="8" as="geometry"/></mxCell><mxCell id="6" value="+ createLogEntry(logLevel: Logging, moduleName: str, message: str)" style="text;strokeColor=none;fillColor=none;align=left;verticalAlign=top;spacingLeft=4;spacingRight=4;overflow=hidden;rotatable=0;points=[[0,0.5],[1,0.5]];portConstraint=eastwest;" parent="3" vertex="1"><mxGeometry y="34" width="380" height="26" as="geometry"/></mxCell><mxCell id="20" style="edgeStyle=orthogonalEdgeStyle;rounded=0;orthogonalLoop=1;jettySize=auto;html=1;dashed=1;endArrow=block;endFill=0;exitX=0.5;exitY=0;exitDx=0;exitDy=0;" parent="39" source="16" target="3" edge="1"><mxGeometry relative="1" as="geometry"><Array as="points"><mxPoint x="205" y="130"/><mxPoint x="205" y="130"/></Array></mxGeometry></mxCell><mxCell id="16" value="Logger" style="swimlane;fontStyle=1;align=center;verticalAlign=top;childLayout=stackLayout;horizontal=1;startSize=26;horizontalStack=0;resizeParent=1;resizeParentMax=0;resizeLast=0;collapsible=1;marginBottom=0;" parent="39" vertex="1"><mxGeometry x="45" y="130" width="320" height="86" as="geometry"/></mxCell><mxCell id="18" value="" style="line;strokeWidth=1;fillColor=none;align=left;verticalAlign=middle;spacingTop=-1;spacingLeft=3;spacingRight=3;rotatable=0;labelPosition=right;points=[];portConstraint=eastwest;strokeColor=inherit;" parent="16" vertex="1"><mxGeometry y="26" width="320" height="8.000000000000002" as="geometry"/></mxCell><mxCell id="23" value="- logFormatter(fileHandler)" style="text;strokeColor=none;fillColor=none;align=left;verticalAlign=top;spacingLeft=4;spacingRight=4;overflow=hidden;rotatable=0;points=[[0,0.5],[1,0.5]];portConstraint=eastwest;" parent="16" vertex="1"><mxGeometry y="34" width="320" height="26.000000000000004" as="geometry"/></mxCell><mxCell id="22" value="- fileHandler(moduleName :str) -&gt; fileHandler" style="text;strokeColor=none;fillColor=none;align=left;verticalAlign=top;spacingLeft=4;spacingRight=4;overflow=hidden;rotatable=0;points=[[0,0.5],[1,0.5]];portConstraint=eastwest;" parent="16" vertex="1"><mxGeometry y="60" width="320" height="26.000000000000004" as="geometry"/></mxCell><mxCell id="44" value="" style="html=1;verticalAlign=bottom;labelBackgroundColor=none;endArrow=oval;endFill=0;endSize=12;rounded=0;exitX=0.5;exitY=0;exitDx=0;exitDy=0;" parent="45" source="3" edge="1"><mxGeometry width="160" relative="1" as="geometry"><mxPoint x="160" y="-20" as="sourcePoint"/><mxPoint x="205" as="targetPoint"/></mxGeometry></mxCell></root></mxGraphModel></diagram></mxfile>